<svg width="66" height="66" viewBox="0 0 66 66" fill="none" xmlns="http://www.w3.org/2000/svg">
    <rect width="66" height="66" rx="14" fill="#1C2640"/>
    <path d="M39.375 24.5V18.7944L45.1762 25.5625H40.4375C40.1557 25.5625 39.8855 25.4506 39.6862 25.2513C39.4869 25.052 39.375 24.7818 39.375 24.5ZM40.4375 27.6875C39.5921 27.6875 38.7814 27.3517 38.1836 26.7539C37.5858 26.1561 37.25 25.3454 37.25 24.5V18.125H23.4375C22.5921 18.125 21.7814 18.4608 21.1836 19.0586C20.5858 19.6564 20.25 20.4671 20.25 21.3125V44.6875C20.25 45.5329 20.5858 46.3436 21.1836 46.9414C21.7814 47.5392 22.5921 47.875 23.4375 47.875H42.5625C43.4079 47.875 44.2186 47.5392 44.8164 46.9414C45.4142 46.3436 45.75 45.5329 45.75 44.6875V27.6875H40.4375Z" fill="#5ECFFF"/>
</svg>
