<svg width="32" height="33" viewBox="0 0 32 33" fill="none" xmlns="http://www.w3.org/2000/svg">
    <g opacity="0.9">
        <path d="M20 6.5H12C11.2044 6.5 10.4413 6.81607 9.87869 7.37868C9.31608 7.94129 9.00001 8.70435 9.00001 9.5V25.5C8.99931 25.6762 9.04518 25.8495 9.13299 26.0023C9.22079 26.155 9.3474 26.2819 9.50001 26.37C9.65203 26.4578 9.82447 26.504 10 26.504C10.1755 26.504 10.348 26.4578 10.5 26.37L16 23.19L21.5 26.37C21.6524 26.4564 21.8248 26.5012 22 26.5C22.1752 26.5012 22.3476 26.4564 22.5 26.37C22.6526 26.2819 22.7792 26.155 22.867 26.0023C22.9548 25.8495 23.0007 25.6762 23 25.5V9.5C23 8.70435 22.6839 7.94129 22.1213 7.37868C21.5587 6.81607 20.7957 6.5 20 6.5ZM21 23.77L16.5 21.17C16.348 21.0822 16.1755 21.036 16 21.036C15.8245 21.036 15.652 21.0822 15.5 21.17L11 23.77V9.5C11 9.23478 11.1054 8.98043 11.2929 8.79289C11.4804 8.60536 11.7348 8.5 12 8.5H20C20.2652 8.5 20.5196 8.60536 20.7071 8.79289C20.8947 8.98043 21 9.23478 21 9.5V23.77Z" fill="white"/>
    </g>
</svg>
