<svg width="20" height="20" viewBox="0 0 20 20" fill="none" xmlns="http://www.w3.org/2000/svg">
    <path d="M18.6801 0.0499629L0.680061 6.04996C0.497303 6.11191 0.33627 6.22521 0.216243 6.37631C0.0962157 6.52741 0.02228 6.7099 0.00328776 6.90193C-0.0157045 7.09396 0.0210515 7.2874 0.109155 7.45908C0.197259 7.63077 0.332977 7.77342 0.50006 7.86996L7.00006 11.58V19C6.99995 19.2145 7.06901 19.4233 7.19698 19.5955C7.32494 19.7677 7.50501 19.894 7.71045 19.9558C7.9159 20.0175 8.13577 20.0114 8.33746 19.9383C8.53914 19.8652 8.71189 19.729 8.83006 19.55L12.3101 14.33L18.5001 17.87C18.6528 17.9554 18.825 17.9996 19 17.9982C19.1749 17.9968 19.3465 17.9499 19.4978 17.8622C19.6492 17.7744 19.7751 17.6487 19.8631 17.4976C19.9512 17.3464 19.9984 17.1749 20.0001 17V0.999963C19.999 0.841474 19.9605 0.685478 19.8878 0.544668C19.815 0.403858 19.71 0.282212 19.5814 0.18963C19.4528 0.0970475 19.3041 0.0361436 19.1475 0.0118739C18.9908 -0.0123957 18.8307 0.000654597 18.6801 0.0499629ZM11.1101 12.54L9.00006 15.7V11.51L12.6701 8.88996L11.1101 12.54Z" fill="white"/>
</svg>
