<svg width="66" height="66" viewBox="0 0 66 66" fill="none" xmlns="http://www.w3.org/2000/svg">
    <rect width="66" height="66" rx="14" fill="#1C2640"/>
    <path d="M43.9544 48.9375H22.0456C21.2876 48.9375 20.5606 48.6364 20.0246 48.1004C19.4886 47.5644 19.1875 46.8374 19.1875 46.0794V19.9206C19.1875 19.1626 19.4886 18.4356 20.0246 17.8996C20.5606 17.3636 21.2876 17.0625 22.0456 17.0625H43.9544C44.7124 17.0625 45.4394 17.3636 45.9754 17.8996C46.5114 18.4356 46.8125 19.1626 46.8125 19.9206V46.0794C46.8125 46.8374 46.5114 47.5644 45.9754 48.1004C45.4394 48.6364 44.7124 48.9375 43.9544 48.9375ZM22.0456 19.1875C21.8512 19.1875 21.6647 19.2647 21.5272 19.4022C21.3897 19.5397 21.3125 19.7262 21.3125 19.9206V46.0794C21.3125 46.2738 21.3897 46.4603 21.5272 46.5978C21.6647 46.7353 21.8512 46.8125 22.0456 46.8125H43.9544C44.1488 46.8125 44.3353 46.7353 44.4728 46.5978C44.6103 46.4603 44.6875 46.2738 44.6875 46.0794V19.9206C44.6875 19.7262 44.6103 19.5397 44.4728 19.4022C44.3353 19.2647 44.1488 19.1875 43.9544 19.1875H22.0456Z" fill="#9E9DA6"/>
    <path d="M40.2356 48.9375H25.7643V17.0625H40.2356V48.9375ZM27.8893 46.8125H38.1212V19.1875H27.8893V46.8125Z" fill="#9E9DA6"/>
    <path d="M20.25 31.9375H27.6875V34.0625H20.25V31.9375Z" fill="#9E9DA6"/>
    <path d="M38.3125 31.9375H45.75V34.0625H38.3125V31.9375Z" fill="#9E9DA6"/>
    <path d="M38.3125 24.3725H45.75V26.4975H38.3125V24.3725Z" fill="#9E9DA6"/>
    <path d="M38.3125 39.5131H45.75V41.6381H38.3125V39.5131Z" fill="#9E9DA6"/>
    <path d="M19.9206 24.3725H27.3581V26.4975H19.9206V24.3725Z" fill="#9E9DA6"/>
    <path d="M19.9206 39.5131H27.3581V41.6381H19.9206V39.5131Z" fill="#9E9DA6"/>
    <path d="M26.8268 18.125H38.7587V48.4062H26.8268V18.125Z" fill="#9E9DA6"/>
</svg>
